<svg height="32" viewBox="0 0 32 32" width="32" xmlns="http://www.w3.org/2000/svg"><g fill="none" fill-rule="evenodd"><path d="M29.859 8.002C25.44.35 15.655-2.272 8.003 2.146.35 6.564-2.272 16.35 2.147 24.002c4.418 7.653 14.203 10.275 21.856 5.856 7.652-4.418 10.274-14.203 5.856-21.856"/><path d="M10.613 25.347a20.248 20.248 0 0 0 9.158 2.67C15.347 31.43 8.773 30.57 5.519 25.974c-1.417-2.001-2.034-4.5-1.766-6.932.32-2.905 1.982-5.446 3.974-7.508l-.001.01c1.309-1.35 3.312-3.262 5.25-3.54 1.913-.272 3.537.83 4.4 2.46-3.681.895-7.037 3.303-8.886 6.649-1.562 2.826-.735 6.584 2.123 8.234zM4.024 9.423c1.235-4.872 5.993-8.074 10.97-7.364 4.834.69 7.817 4.607 9.093 9.059.472 1.647.855 3.55.686 5.275-.23 2.357-2.382 3.715-4.592 3.629.75-2.494.786-5.098.096-7.61-.646-2.35-1.743-4.694-4.038-5.805a.057.057 0 0 0 .014-.004c-4.967-2.416-10.02 2.893-12.45 6.692a10.23 10.23 0 0 1 .221-3.872zm22.765 6.622c0-3.206-.79-6.373-2.277-9.222 5.926 2.39 8.174 9.905 4.318 15.081-2.812 3.772-7.369 4.682-11.78 3.766-2.076-.43-5.078-1.247-6.474-2.966-1.235-1.522-1.048-3.475-.056-5.043 1.846 1.94 4.187 3.322 6.791 3.955 2.266.551 4.737.74 6.773-.63 1.646-1.108 2.696-2.945 2.705-4.94z" fill="#2bc1d9"/></g></svg>