<svg version="1" xmlns="http://www.w3.org/2000/svg" width="346.667" height="346.667" viewBox="0 0 260.000000 260.000000"><path d="M90.5 7.1C81.8 8.3 79.6 8.7 73 11c-28.6 9.6-49.5 31.8-57.1 60.6-1.9 7.4-3.5 30.5-2.2 32.7.3.5 2.6-2 5.1-5.5 21.8-30.1 46.6-50 69-55.2 21.2-4.9 43.2 4.1 56.3 23 6.9 10.1 13.8 28.8 16.3 44.3 1.3 8.1 1.5 32.7.3 37.6-1 3.8-2.6 11-3.1 13.8-.5 2.6-.4 2.7 3.7 2.3 15.2-1.5 25.3-7.5 31.7-18.9 6.3-11.2 5.9-32.4-1.1-56.7-.7-2.5-1.3-4.7-1.4-5-1.2-5.4-8.6-22.4-13.2-30.3-13-22.2-33.7-38.6-55.8-44.2C111.4 7 98.8 6 90.5 7.1z"/><path d="M195 49.5c0 .3 1.3 3.1 2.9 6.3 1.5 3.1 3.2 6.8 3.6 8.2.4 1.4 1.3 3.8 2.1 5.5 1 2.5 4 11.6 5 16 10.1 41.3 7.5 63.1-9.8 80.3-6.4 6.5-13.9 10.9-23.2 13.8-8.7 2.6-29.5 2.4-39.3-.5-1.8-.5-3.3-.8-3.3-.6 0 .3-3.9-.9-8.7-2.6-19.1-6.6-33-14.8-46.6-27.6-4.6-4.3-4.9-4.4-6.2-2.7-2.1 2.8-5.6 13.8-5.9 18.5-1 15.5 8 28.5 25.7 37.3 8 4 20.9 8.7 27.2 10.1 3.5.7 10.9 2.3 13 2.8 12.9 3 35.7 2.9 50.5-.4 27.5-6 50.8-25.9 61.3-52.4 4.6-11.6 4.9-13.3 5.3-29.5.3-10.9-.1-15.2-1.7-22-5.6-24.1-23.5-47.2-44.4-57.4-2.2-1.1-4.8-2.3-5.7-2.8-1-.5-1.8-.6-1.8-.3z"/><path d="M87.8 61c-10.5 3.7-19.9 10.2-33.7 23.5-23 22.2-34.9 41.6-39.9 65.5-.4 1.9-.7 9.6-.6 17 0 14.8 1.8 23.2 7.3 35.4C31.1 225 51.6 242.5 75.2 249c10.7 2.9 14.2 3.3 25.3 3.3 14.2 0 29.1-3.7 40-9.7 6.8-3.8 12.7-7.7 12.3-8.1-.2-.2-3.6-.6-7.5-1-4-.3-8.3-.8-9.5-1.1-1.3-.2-3.9-.7-5.8-1-13.4-2.1-32.1-8.5-48-16.3-18-8.8-27.3-19.3-31.8-35.6-1.8-6.9-2.2-16.7-.8-24.8 1.5-9.1 8.5-21.9 18.4-33.5 5.6-6.7 6.9-7.9 13.4-13.7 9.5-8.5 27.5-18.7 41.6-23.5 5-1.8 9.2-3.6 9.2-4.1 0-.4-1.9-3.2-4.3-6.1-10.5-12.9-25.5-17.7-39.9-12.8z"/></svg>