<?xml version="1.0" encoding="utf-8"?>
<!-- Generator: Adobe Illustrator 22.1.0, SVG Export Plug-In . SVG Version: 6.00 Build 0)  -->
<svg version="1.1" id="Layer_1" xmlns="http://www.w3.org/2000/svg" xmlns:xlink="http://www.w3.org/1999/xlink" x="0px" y="0px"
	 viewBox="0 0 114 114" style="enable-background:new 0 0 114 114;" xml:space="preserve">
<style type="text/css">
	.st0{fill:none;}
	.st1{fill:#2BC1D9;}
</style>
<g>
	<path class="st0" d="M104.4,26.5C88.6-0.7,53.8-10.1,26.5,5.6C-0.7,21.4-10.1,56.2,5.7,83.5c15.7,27.3,50.6,36.6,77.9,20.9
		C110.8,88.6,120.1,53.8,104.4,26.5"/>
	<path class="st1" d="M35.8,88.3c10,5.7,21.1,9,32.6,9.5c-15.8,12.2-39.2,9.1-50.8-7.3c-5-7.1-7.2-16-6.3-24.7
		c1.1-10.3,7.1-19.4,14.2-26.7l0,0c4.7-4.8,11.8-11.6,18.7-12.6c6.8-1,12.6,3,15.7,8.8C46.8,38.5,34.8,47,28.2,59
		C22.7,69,25.6,82.4,35.8,88.3z M12.3,31.6C16.7,14.2,33.7,2.8,51.4,5.3c17.2,2.5,27.8,16.4,32.4,32.3c1.7,5.9,3,12.6,2.4,18.8
		c-0.8,8.4-8.5,13.2-16.4,12.9c2.7-8.9,2.8-18.2,0.3-27.1c-2.3-8.4-6.2-16.7-14.4-20.7c0,0,0,0,0,0c-17.7-8.6-35.7,10.3-44.3,23.8
		C10.9,40.8,11.2,36.1,12.3,31.6z M93.4,55.2c0-11.4-2.8-22.7-8.1-32.8c21.1,8.5,29.1,35.3,15.4,53.7c-10,13.4-26.2,16.7-42,13.4
		c-7.4-1.5-18.1-4.4-23.1-10.6c-4.4-5.4-3.7-12.4-0.2-18c6.6,6.9,14.9,11.8,24.2,14.1c8.1,2,16.9,2.6,24.1-2.2
		C89.7,68.8,93.4,62.3,93.4,55.2L93.4,55.2z"/>
</g>
</svg>
